<?xml version="1.0" encoding="UTF-8"?>
<!DOCTYPE svg PUBLIC "-//W3C//DTD SVG 1.1//EN" "http://www.w3.org/Graphics/SVG/1.1/DTD/svg11.dtd">
<svg xmlns="http://www.w3.org/2000/svg" version="1.1" width="1310px" height="247px" style="shape-rendering:geometricPrecision; text-rendering:geometricPrecision; image-rendering:optimizeQuality; fill-rule:evenodd; clip-rule:evenodd" xmlns:xlink="http://www.w3.org/1999/xlink">
<g><path style="opacity:1" fill="#fefefe" d="M -0.5,-0.5 C 436.167,-0.5 872.833,-0.5 1309.5,-0.5C 1309.5,81.8333 1309.5,164.167 1309.5,246.5C 872.833,246.5 436.167,246.5 -0.5,246.5C -0.5,164.167 -0.5,81.8333 -0.5,-0.5 Z"/></g>
<g><path style="opacity:1" fill="#0fb154" d="M 114.5,8.5 C 140.977,7.17006 158.81,18.8367 168,43.5C 171.084,57.829 168.917,71.329 161.5,84C 162.27,85.7748 163.437,87.2748 165,88.5C 186.473,75.2963 206.806,76.963 226,93.5C 243.295,114.609 243.962,136.276 228,158.5C 209.004,176.723 188.004,179.39 165,166.5C 162.277,167.208 161.277,168.875 162,171.5C 172.922,191.333 171.589,210.333 158,228.5C 140.147,246.094 119.981,249.26 97.5,238C 73.3359,219.718 68.3359,197.052 82.5,170C 81.7916,167.277 80.1249,166.277 77.5,167C 52.3139,180.162 30.4805,175.996 12,154.5C -3.00137,126.977 2.1653,104.144 27.5,86C 45.3028,76.8949 62.6362,77.7282 79.5,88.5C 80.8139,87.6872 81.9805,86.6872 83,85.5C 79.5821,78.9615 76.9154,71.9615 75,64.5C 73.6023,35.4189 86.769,16.7522 114.5,8.5 Z"/></g>
<g><path style="opacity:1" fill="#edf9f2" d="M 116.5,19.5 C 145.324,20.1551 159.158,34.8217 158,63.5C 157.357,68.1286 155.523,72.1286 152.5,75.5C 151.692,75.1924 151.025,74.6924 150.5,74C 159.603,55.9727 156.269,40.6394 140.5,28C 115.825,17.0858 98.6581,24.2525 89,49.5C 87.5397,76.7045 100.373,90.2045 127.5,90C 132.308,88.6126 136.975,87.2792 141.5,86C 142.833,86.6667 142.833,87.3333 141.5,88C 122.012,98.1672 105.512,94.6672 92,77.5C 80.8063,57.596 83.9729,40.4294 101.5,26C 106.381,23.2176 111.381,21.051 116.5,19.5 Z"/></g>
<g><path style="opacity:1" fill="#fbfefc" d="M 117.5,33.5 C 136.128,33.6269 144.961,42.9602 144,61.5C 139.589,74.7898 130.422,80.6231 116.5,79C 103.969,74.1116 98.469,64.9449 100,51.5C 102.683,42.318 108.517,36.318 117.5,33.5 Z"/></g>
<g><path style="opacity:1" fill="#03b050" d="M 262.5,64.5 C 277.869,64.1412 293.203,64.6412 308.5,66C 325.072,68.6883 336.239,77.855 342,93.5C 347.54,113.306 345.54,132.306 336,150.5C 327.922,159.79 317.755,165.29 305.5,167C 291.195,168.464 276.862,168.797 262.5,168C 261.667,167.167 260.833,166.333 260,165.5C 259.333,132.5 259.333,99.5 260,66.5C 260.995,65.9341 261.828,65.2674 262.5,64.5 Z"/></g>
<g><path style="opacity:1" fill="#00b050" d="M 422.5,80.5 C 409.5,80.5 396.5,80.5 383.5,80.5C 383.5,89.1667 383.5,97.8333 383.5,106.5C 394.167,106.5 404.833,106.5 415.5,106.5C 417.652,108.607 418.652,111.274 418.5,114.5C 418.519,117.206 417.852,119.706 416.5,122C 405.839,122.5 395.172,122.667 384.5,122.5C 383.506,132.319 383.173,142.319 383.5,152.5C 396.5,152.5 409.5,152.5 422.5,152.5C 425.092,157.535 425.092,162.702 422.5,168C 403.833,168.667 385.167,168.667 366.5,168C 365.667,167.167 364.833,166.333 364,165.5C 363.171,132.262 363.338,99.0951 364.5,66C 383.743,64.3588 403.077,64.0255 422.5,65C 423.81,70.1662 423.81,75.3329 422.5,80.5 Z"/></g>
<g><path style="opacity:1" fill="#00b050" d="M 502.5,80.5 C 489.5,80.5 476.5,80.5 463.5,80.5C 463.5,89.1667 463.5,97.8333 463.5,106.5C 474.167,106.5 484.833,106.5 495.5,106.5C 497.652,108.607 498.652,111.274 498.5,114.5C 498.519,117.206 497.852,119.706 496.5,122C 485.839,122.5 475.172,122.667 464.5,122.5C 463.506,132.319 463.173,142.319 463.5,152.5C 476.5,152.5 489.5,152.5 502.5,152.5C 505.092,157.535 505.092,162.702 502.5,168C 483.833,168.667 465.167,168.667 446.5,168C 445.667,167.167 444.833,166.333 444,165.5C 443.171,132.262 443.338,99.0951 444.5,66C 463.743,64.3588 483.077,64.0255 502.5,65C 503.81,70.1662 503.81,75.3329 502.5,80.5 Z"/></g>
<g><path style="opacity:1" fill="#03b050" d="M 558.5,131.5 C 553.5,131.5 548.5,131.5 543.5,131.5C 543.5,143.167 543.5,154.833 543.5,166.5C 540.135,168.039 536.469,168.706 532.5,168.5C 529.579,168.476 526.746,168.143 524,167.5C 523.333,134.167 523.333,100.833 524,67.5C 524.903,66.2986 526.069,65.4652 527.5,65C 539.167,64.3333 550.833,64.3333 562.5,65C 587.075,67.5819 597.242,81.0819 593,105.5C 588.067,122.572 576.567,131.238 558.5,131.5 Z"/></g>
<g><path style="opacity:1" fill="#00b050" d="M 631.5,66.5 C 631.5,94.8333 631.5,123.167 631.5,151.5C 642.833,151.5 654.167,151.5 665.5,151.5C 666.117,151.611 666.617,151.944 667,152.5C 667.781,157.554 667.614,162.554 666.5,167.5C 649.176,168.666 631.843,168.833 614.5,168C 613.667,167.167 612.833,166.333 612,165.5C 611.333,132.167 611.333,98.8333 612,65.5C 617.75,64.3594 623.584,64.1928 629.5,65C 630.416,65.2784 631.082,65.7784 631.5,66.5 Z"/></g>
<g><path style="opacity:1" fill="#20b358" d="M 682.5,64.5 C 688.176,64.3339 693.843,64.5006 699.5,65C 700.416,65.3742 701.25,65.8742 702,66.5C 702.667,99.5 702.667,132.5 702,165.5C 701.228,166.849 700.061,167.682 698.5,168C 692.482,168.988 686.649,168.488 681,166.5C 680.333,133.167 680.333,99.8333 681,66.5C 681.717,65.9558 682.217,65.2891 682.5,64.5 Z"/></g>
<g><path style="opacity:1" fill="#03b050" d="M 790.5,136.5 C 790.987,137.473 791.487,138.473 792,139.5C 792.5,115.169 792.667,90.8356 792.5,66.5C 792.611,65.8826 792.944,65.3826 793.5,65C 798.887,64.2155 804.22,64.3822 809.5,65.5C 810.667,98.495 810.833,131.495 810,164.5C 806.425,167.966 802.092,169.3 797,168.5C 789.638,169.819 784.305,167.152 781,160.5C 768.141,136.782 755.807,112.782 744,88.5C 743.833,114.84 743.333,141.173 742.5,167.5C 736.97,168.815 731.47,168.815 726,167.5C 725.333,134.167 725.333,100.833 726,67.5C 726.903,66.2986 728.069,65.4652 729.5,65C 735.833,64.3333 742.167,64.3333 748.5,65C 751.034,65.5163 753.2,66.683 755,68.5C 767.116,91.0674 778.95,113.734 790.5,136.5 Z"/></g>
<g><path style="opacity:1" fill="#10b153" d="M 854.5,66.5 C 854.333,81.5037 854.5,96.5037 855,111.5C 855.717,110.956 856.217,110.289 856.5,109.5C 866.934,94.8203 877.268,79.987 887.5,65C 893.833,64.3333 900.167,64.3333 906.5,65C 908.211,66.1332 908.711,67.6332 908,69.5C 897.617,83.7731 887.117,97.9398 876.5,112C 886.288,127.74 896.454,143.24 907,158.5C 908.908,161.206 909.741,164.206 909.5,167.5C 902.486,168.756 895.486,168.756 888.5,167.5C 877.412,151.084 866.746,134.417 856.5,117.5C 856.44,116.957 856.107,116.624 855.5,116.5C 854.501,133.153 854.167,149.82 854.5,166.5C 851.474,168.019 848.141,168.685 844.5,168.5C 840.8,168.657 837.3,167.991 834,166.5C 833.333,133.167 833.333,99.8333 834,66.5C 834.5,66 835,65.5 835.5,65C 841.167,64.3333 846.833,64.3333 852.5,65C 853.416,65.2784 854.082,65.7784 854.5,66.5 Z"/></g>
<g><path style="opacity:1" fill="#03b050" d="M 964.5,64.5 C 979.869,64.1412 995.203,64.6412 1010.5,66C 1027.07,68.6883 1038.24,77.855 1044,93.5C 1049.54,113.306 1047.54,132.306 1038,150.5C 1029.92,159.79 1019.76,165.29 1007.5,167C 993.195,168.464 978.862,168.797 964.5,168C 963.667,167.167 962.833,166.333 962,165.5C 961.333,132.5 961.333,99.5 962,66.5C 962.995,65.9341 963.828,65.2674 964.5,64.5 Z"/></g>
<g><path style="opacity:1" fill="#08b051" d="M 1087.5,64.5 C 1095.51,64.3336 1103.51,64.5003 1111.5,65C 1112,65.5 1112.5,66 1113,66.5C 1125.2,99.2637 1136.7,132.264 1147.5,165.5C 1147.02,166.478 1146.36,167.311 1145.5,168C 1139.5,168.667 1133.5,168.667 1127.5,168C 1126.57,167.612 1125.91,166.945 1125.5,166C 1123.27,159.129 1120.93,152.296 1118.5,145.5C 1105.17,144.167 1091.83,144.167 1078.5,145.5C 1076.07,152.296 1073.73,159.129 1071.5,166C 1071.09,166.945 1070.43,167.612 1069.5,168C 1064.17,168.667 1058.83,168.667 1053.5,168C 1053,167.5 1052.5,167 1052,166.5C 1052.05,164.212 1052.39,161.879 1053,159.5C 1063.67,128.833 1074.33,98.1667 1085,67.5C 1086.04,66.6266 1086.88,65.6266 1087.5,64.5 Z"/></g>
<g><path style="opacity:1" fill="#0eb152" d="M 1139.5,64.5 C 1164.84,64.3334 1190.17,64.5 1215.5,65C 1216.63,69.7477 1216.8,74.581 1216,79.5C 1215.5,80 1215,80.5 1214.5,81C 1205.51,81.4998 1196.51,81.6664 1187.5,81.5C 1187.5,110.167 1187.5,138.833 1187.5,167.5C 1181.2,168.539 1174.87,168.706 1168.5,168C 1168,167.5 1167.5,167 1167,166.5C 1166.5,138.169 1166.33,109.835 1166.5,81.5C 1157.49,81.6664 1148.49,81.4998 1139.5,81C 1136.88,75.5018 1136.88,70.0018 1139.5,64.5 Z"/></g>
<g><path style="opacity:1" fill="#08b051" d="M 1243.5,64.5 C 1251.51,64.3336 1259.51,64.5003 1267.5,65C 1268,65.5 1268.5,66 1269,66.5C 1281.2,99.2637 1292.7,132.264 1303.5,165.5C 1303.02,166.478 1302.36,167.311 1301.5,168C 1295.5,168.667 1289.5,168.667 1283.5,168C 1282.57,167.612 1281.91,166.945 1281.5,166C 1279.27,159.129 1276.93,152.296 1274.5,145.5C 1261.17,144.167 1247.83,144.167 1234.5,145.5C 1232.07,152.296 1229.73,159.129 1227.5,166C 1227.09,166.945 1226.43,167.612 1225.5,168C 1220.17,168.667 1214.83,168.667 1209.5,168C 1209,167.5 1208.5,167 1208,166.5C 1208.05,164.212 1208.39,161.879 1209,159.5C 1219.67,128.833 1230.33,98.1667 1241,67.5C 1242.04,66.6266 1242.88,65.6266 1243.5,64.5 Z"/></g>
<g><path style="opacity:1" fill="#93ddb4" d="M 792.5,66.5 C 792.667,90.8356 792.5,115.169 792,139.5C 791.487,138.473 790.987,137.473 790.5,136.5C 791.167,113.167 791.833,89.8333 792.5,66.5 Z"/></g>
<g><path style="opacity:1" fill="#bdead1" d="M 854.5,66.5 C 855.167,80.8333 855.833,95.1667 856.5,109.5C 856.217,110.289 855.717,110.956 855,111.5C 854.5,96.5037 854.333,81.5037 854.5,66.5 Z"/></g>
<g><path style="opacity:1" fill="#bae9ce" d="M 544.5,80.5 C 544.5,92.1667 544.5,103.833 544.5,115.5C 549.167,115.5 553.833,115.5 558.5,115.5C 553.695,116.487 548.695,116.821 543.5,116.5C 543.172,104.322 543.505,92.3217 544.5,80.5 Z"/></g>
<g><path style="opacity:1" fill="#fcfefd" d="M 544.5,80.5 C 550.176,80.3339 555.843,80.5006 561.5,81C 571.723,86.3231 574.889,94.4897 571,105.5C 568.746,111.257 564.579,114.591 558.5,115.5C 553.833,115.5 549.167,115.5 544.5,115.5C 544.5,103.833 544.5,92.1667 544.5,80.5 Z"/></g>
<g><path style="opacity:1" fill="#bae9ce" d="M 298.5,81.5 C 292.5,81.5 286.5,81.5 280.5,81.5C 280.5,104.833 280.5,128.167 280.5,151.5C 285.167,151.5 289.833,151.5 294.5,151.5C 289.695,152.487 284.695,152.821 279.5,152.5C 279.5,128.5 279.5,104.5 279.5,80.5C 286.022,80.1765 292.355,80.5098 298.5,81.5 Z"/></g>
<g><path style="opacity:1" fill="#fefefe" d="M 298.5,81.5 C 312.063,83.8951 320.229,91.8951 323,105.5C 324.55,116.91 323.217,127.91 319,138.5C 313.317,147.426 305.15,151.759 294.5,151.5C 289.833,151.5 285.167,151.5 280.5,151.5C 280.5,128.167 280.5,104.833 280.5,81.5C 286.5,81.5 292.5,81.5 298.5,81.5 Z"/></g>
<g><path style="opacity:1" fill="#bae9ce" d="M 1000.5,81.5 C 994.5,81.5 988.5,81.5 982.5,81.5C 982.5,104.833 982.5,128.167 982.5,151.5C 987.167,151.5 991.833,151.5 996.5,151.5C 991.695,152.487 986.695,152.821 981.5,152.5C 981.5,128.5 981.5,104.5 981.5,80.5C 988.022,80.1765 994.355,80.5098 1000.5,81.5 Z"/></g>
<g><path style="opacity:1" fill="#fefefe" d="M 1000.5,81.5 C 1014.06,83.8951 1022.23,91.8951 1025,105.5C 1026.55,116.91 1025.22,127.91 1021,138.5C 1015.32,147.426 1007.15,151.759 996.5,151.5C 991.833,151.5 987.167,151.5 982.5,151.5C 982.5,128.167 982.5,104.833 982.5,81.5C 988.5,81.5 994.5,81.5 1000.5,81.5 Z"/></g>
<g><path style="opacity:1" fill="#f6fcf8" d="M 1097.5,84.5 C 1098.5,84.4701 1099.16,84.9701 1099.5,86C 1104.07,99.8704 1108.73,113.704 1113.5,127.5C 1103.52,128.499 1093.52,128.832 1083.5,128.5C 1087.96,113.773 1092.63,99.1059 1097.5,84.5 Z"/></g>
<g><path style="opacity:1" fill="#f6fcf8" d="M 1253.5,84.5 C 1254.5,84.4701 1255.16,84.9701 1255.5,86C 1260.07,99.8704 1264.73,113.704 1269.5,127.5C 1259.52,128.499 1249.52,128.832 1239.5,128.5C 1243.96,113.773 1248.63,99.1059 1253.5,84.5 Z"/></g>
<g><path style="opacity:1" fill="#eefaf3" d="M 47.5,90.5 C 56.2132,90.1776 64.2132,92.3442 71.5,97C 70.9747,97.6924 70.3081,98.1924 69.5,98.5C 44.7384,88.1321 27.5718,95.4654 18,120.5C 16.0541,140.447 24.5541,153.614 43.5,160C 72.2097,161.623 86.043,148.123 85,119.5C 83.7743,116.048 82.2743,112.715 80.5,109.5C 81.5174,106.972 82.6841,106.972 84,109.5C 92.2538,128.905 88.0872,145.072 71.5,158C 51.775,167.789 34.9417,164.289 21,147.5C 9.96981,127.941 13.1365,111.108 30.5,97C 35.8876,93.7516 41.5543,91.5849 47.5,90.5 Z"/></g>
<g><path style="opacity:1" fill="#effaf4" d="M 186.5,90.5 C 214.377,90.8753 228.21,104.875 228,132.5C 224.727,148.441 215.227,158.607 199.5,163C 194.5,163.667 189.5,163.667 184.5,163C 180.251,162.209 176.584,160.375 173.5,157.5C 173.808,156.692 174.308,156.025 175,155.5C 191.685,164.249 206.352,161.583 219,147.5C 230.006,128.818 227.173,112.651 210.5,99C 192.299,89.2958 176.799,92.4625 164,108.5C 159,116.169 157.333,124.502 159,133.5C 160.691,137.841 162.024,142.174 163,146.5C 162.667,146.833 162.333,147.167 162,147.5C 150.926,127.966 154.093,111.132 171.5,97C 176.381,94.2176 181.381,92.051 186.5,90.5 Z"/></g>
<g><path style="opacity:1" fill="#fdfefd" d="M 93.5,95.5 C 112.483,107.456 131.483,107.456 150.5,95.5C 152.946,96.427 153.779,98.0937 153,100.5C 141.645,118.894 141.812,137.227 153.5,155.5C 153.023,156.478 152.357,157.311 151.5,158C 146.498,156.344 141.498,154.344 136.5,152C 121.254,147.188 107.087,149.354 94,158.5C 92.7387,158.241 91.7387,157.574 91,156.5C 92.8294,151.925 94.8294,147.258 97,142.5C 101.971,126.87 99.8046,112.37 90.5,99C 91.7101,97.9609 92.7101,96.7942 93.5,95.5 Z"/></g>
<g><path style="opacity:1" fill="#fbfefc" d="M 46.5,104.5 C 65.6941,104.193 74.8608,113.526 74,132.5C 67.4435,147.801 56.2769,152.635 40.5,147C 28.9993,138.822 26.1659,128.322 32,115.5C 35.8568,110.468 40.6901,106.801 46.5,104.5 Z"/></g>
<g><path style="opacity:1" fill="#fcfefc" d="M 187.5,104.5 C 205.693,104.524 214.526,113.524 214,131.5C 209.93,145.288 200.763,151.121 186.5,149C 174.275,144.387 168.775,135.554 170,122.5C 172.683,113.318 178.517,107.318 187.5,104.5 Z"/></g>
<g><path style="opacity:1" fill="#d8f2e4" d="M 422.5,80.5 C 410.011,81.4954 397.344,81.8287 384.5,81.5C 384.5,89.5 384.5,97.5 384.5,105.5C 395.014,105.172 405.347,105.506 415.5,106.5C 404.833,106.5 394.167,106.5 383.5,106.5C 383.5,97.8333 383.5,89.1667 383.5,80.5C 396.5,80.5 409.5,80.5 422.5,80.5 Z"/></g>
<g><path style="opacity:1" fill="#d8f2e4" d="M 502.5,80.5 C 490.011,81.4954 477.344,81.8287 464.5,81.5C 464.5,89.5 464.5,97.5 464.5,105.5C 475.014,105.172 485.347,105.506 495.5,106.5C 484.833,106.5 474.167,106.5 463.5,106.5C 463.5,97.8333 463.5,89.1667 463.5,80.5C 476.5,80.5 489.5,80.5 502.5,80.5 Z"/></g>
<g><path style="opacity:1" fill="#bbe9d0" d="M 856.5,117.5 C 855.833,133.833 855.167,150.167 854.5,166.5C 854.167,149.82 854.501,133.153 855.5,116.5C 856.107,116.624 856.44,116.957 856.5,117.5 Z"/></g>
<g><path style="opacity:1" fill="#b1e6c8" d="M 558.5,131.5 C 554.03,132.486 549.363,132.819 544.5,132.5C 544.828,144.012 544.495,155.346 543.5,166.5C 543.5,154.833 543.5,143.167 543.5,131.5C 548.5,131.5 553.5,131.5 558.5,131.5 Z"/></g>
<g><path style="opacity:1" fill="#a9e3c3" d="M 631.5,66.5 C 632.498,94.3284 632.831,122.328 632.5,150.5C 643.679,150.172 654.679,150.505 665.5,151.5C 654.167,151.5 642.833,151.5 631.5,151.5C 631.5,123.167 631.5,94.8333 631.5,66.5 Z"/></g>
<g><path style="opacity:1" fill="#bce9d0" d="M 384.5,122.5 C 384.5,132.167 384.5,141.833 384.5,151.5C 397.344,151.171 410.011,151.505 422.5,152.5C 409.5,152.5 396.5,152.5 383.5,152.5C 383.173,142.319 383.506,132.319 384.5,122.5 Z"/></g>
<g><path style="opacity:1" fill="#bce9d0" d="M 464.5,122.5 C 464.5,132.167 464.5,141.833 464.5,151.5C 477.344,151.171 490.011,151.505 502.5,152.5C 489.5,152.5 476.5,152.5 463.5,152.5C 463.173,142.319 463.506,132.319 464.5,122.5 Z"/></g>
<g><path style="opacity:1" fill="#effaf4" d="M 116.5,160.5 C 144.377,160.875 158.21,174.875 158,202.5C 154.727,218.441 145.227,228.607 129.5,233C 106.46,234.953 91.9597,224.787 86,202.5C 84.3738,193.674 86.2071,185.674 91.5,178.5C 92.3081,178.808 92.9747,179.308 93.5,180C 85.0955,196.039 87.4288,210.372 100.5,223C 118.189,234.488 134.355,232.654 149,217.5C 158.89,201.16 157.39,185.993 144.5,172C 136.017,165.129 126.351,162.462 115.5,164C 111.159,165.691 106.826,167.024 102.5,168C 102.167,167.667 101.833,167.333 101.5,167C 106.381,164.218 111.381,162.051 116.5,160.5 Z"/></g>
<g><path style="opacity:1" fill="#fcfefc" d="M 117.5,174.5 C 135.693,174.524 144.526,183.524 144,201.5C 139.93,215.288 130.763,221.121 116.5,219C 104.275,214.387 98.7745,205.554 100,192.5C 102.683,183.318 108.517,177.318 117.5,174.5 Z"/></g>
</svg>
